<?xml version="1.0"?>
<svg width="53" height="48" xmlns="http://www.w3.org/2000/svg" xmlns:svg="http://www.w3.org/2000/svg">
 <defs>
  <linearGradient id="paint0_linear" x1="0.5" x2="0.5" y1="1" y2="0">
   <stop stop-color="#31CECD"/>
   <stop offset="0.92" stop-color="#31CECD" stop-opacity="0"/>
  </linearGradient>
  <linearGradient id="paint1_linear" x1="1" x2="0" y1="0.5" y2="0.5">
   <stop stop-color="#EB1976"/>
   <stop offset="0.89" stop-color="#EB1976" stop-opacity="0"/>
  </linearGradient>
  <linearGradient id="paint2_linear" x1="0.5" x2="0.5" y1="0" y2="1">
   <stop stop-color="#FB9D19"/>
   <stop offset="0.87" stop-color="#FB9D19" stop-opacity="0"/>
  </linearGradient>
  <linearGradient id="paint3_linear" x1="0" x2="1" y1="0.5" y2="0.5">
   <stop stop-color="#177AE2"/>
   <stop offset="0.9" stop-color="#177AE2" stop-opacity="0"/>
  </linearGradient>
  <linearGradient id="paint4_linear" x1="0.5" x2="0.5" y1="1" y2="0">
   <stop stop-color="#31CECD"/>
   <stop offset="0.94" stop-color="#31CECD" stop-opacity="0"/>
  </linearGradient>
  <linearGradient id="paint5_linear" x1="1" x2="0" y1="0.5" y2="0.5">
   <stop stop-color="#EB1976"/>
   <stop offset="0.88" stop-color="#EB1976" stop-opacity="0"/>
  </linearGradient>
  <linearGradient id="paint6_linear" x1="0.5" x2="0.5" y1="0" y2="1">
   <stop stop-color="#FB9D19"/>
   <stop offset="0.85" stop-color="#FB9D19" stop-opacity="0"/>
  </linearGradient>
  <linearGradient id="paint7_linear" x1="0" x2="1" y1="0.5" y2="0.5">
   <stop stop-color="#177AE2"/>
   <stop offset="0.9" stop-color="#177AE2" stop-opacity="0"/>
  </linearGradient>
 </defs>
 <g class="layer">
  <title>Layer 1</title>
  <path d="m28.15,17.23c-1.15,0.87 -2.79,0.87 -3.94,0c-5.51,-4.02 -11.14,-7.97 -16.68,-11.95c-3,-2.18 -3.74,-2.79 -0.91,-1.32c14.22,6.21 24.94,6.21 39.2,0c2.83,-1.47 2.09,-0.82 -0.91,1.32c-5.59,3.98 -11.21,7.93 -16.76,11.95z" fill="url(#paint0_linear)" id="svg_1"/>
  <path d="m18.99,25.29c1.15,-0.78 1.11,-1.89 0,-2.71c-5.42,-3.78 -10.76,-7.69 -16.15,-11.55c-2.87,-2.09 -3.74,-2.59 -1.8,-0.66c8.42,9.86 8.58,16.97 0.37,26.95c-1.89,1.94 -1.07,1.44 1.76,-0.61c5.26,-3.82 10.48,-7.68 15.82,-11.42z" fill="url(#paint1_linear)" id="svg_2"/>
  <path d="m28.15,30.87c-1.15,-0.86 -2.79,-0.86 -3.94,0c-5.51,4.03 -11.14,7.97 -16.68,11.96c-3,2.13 -3.74,2.79 -0.91,1.31c14.22,-6.2 24.94,-6.2 39.2,0c2.83,1.48 2.09,0.82 -0.91,-1.31c-5.59,-3.99 -11.21,-7.93 -16.76,-11.96z" fill="url(#paint2_linear)" id="svg_3"/>
  <path d="m33.41,22.58c-1.15,0.78 -1.15,1.93 0,2.71c5.34,3.74 10.56,7.6 15.82,11.42c2.83,2.05 3.69,2.55 1.76,0.61c-8.21,-9.98 -8.01,-17.09 0.37,-26.95c1.97,-1.93 1.11,-1.43 -1.81,0.66c-5.38,3.86 -10.68,7.77 -16.14,11.55z" fill="url(#paint3_linear)" id="svg_4"/>
  <path d="m27.74,17.11c-0.9,1.03 -2.14,1.03 -3.04,0c-4.27,-4.8 -8.63,-9.57 -12.94,-14.34c-2.34,-2.58 -2.88,-3.32 -0.7,-1.56c11.09,7.52 19.23,7.52 30.32,0c2.18,-1.76 1.64,-0.98 -0.7,1.56c-4.31,4.77 -8.67,9.49 -12.94,14.34z" fill="url(#paint4_linear)" id="svg_5"/>
  <path d="m19.15,25.74c0.91,-1.07 0.91,-2.55 0,-3.62c-4.43,-5.09 -8.75,-10.31 -13.1,-15.48c-2.34,-2.8 -3.04,-3.5 -1.48,-0.87c6.78,13.19 6.9,22.89 0.29,36.2c-1.56,2.58 -0.87,1.93 1.43,-0.82c4.28,-5.18 8.51,-10.36 12.86,-15.41z" fill="url(#paint5_linear)" id="svg_6"/>
  <path d="m27.74,31c-0.9,-1.03 -2.14,-1.03 -3.04,0c-4.27,4.8 -8.63,9.57 -12.94,14.33c-2.34,2.59 -2.88,3.33 -0.7,1.57c11.09,-7.52 19.23,-7.52 30.32,0c2.18,1.76 1.64,0.98 -0.7,-1.57c-4.31,-4.8 -8.67,-9.53 -12.94,-14.33z" fill="url(#paint6_linear)" id="svg_7"/>
  <path d="m33.24,22.12c-0.94,1.07 -0.94,2.55 0,3.62c4.36,5.05 8.59,10.23 12.86,15.36c2.3,2.76 3,3.41 1.44,0.83c-6.61,-13.27 -6.49,-23.01 0.29,-36.2c1.6,-2.59 0.9,-1.93 -1.48,0.87c-4.36,5.21 -8.67,10.43 -13.11,15.52z" fill="url(#paint7_linear)" id="svg_8"/>
 </g>
</svg>